<svg width="143" height="26" viewBox="0 0 143 26" fill="none" xmlns="http://www.w3.org/2000/svg">
<path fill-rule="evenodd" clip-rule="evenodd" d="M34.1932 3.67967C42.0943 3.67967 44.9416 10.4828 44.9416 14.9023C44.9416 19.8065 42.1001 25.9999 34.1932 25.9999C26.2921 25.9999 23.2129 19.3684 23.2129 14.9348C23.2129 10.5235 26.2864 3.67967 34.1932 3.67967ZM134.584 3.69101C141.379 3.69101 142.995 6.99826 142.995 10.7029L143 25.9802H137.719L137.717 23.2966C136.289 25.0002 132.689 25.9691 130.553 25.9691C125.969 25.9691 124.08 23.6044 124.08 19.8226C124.08 13.146 134.062 11.888 137.723 11.661L137.727 10.5342C137.727 7.49338 135.982 6.47096 134.2 6.3603C132.938 6.28203 129.68 6.36062 128.753 9.74355C128.678 10.0151 128.652 10.3638 128.642 10.6931H125.98C125.98 8.68389 126.857 7.01089 127.477 6.32305C129.457 4.12524 132.172 3.69101 134.584 3.69101ZM79.6007 3.69513C85.0297 3.69513 88.7216 7.41545 89.1009 13.1592L89.1256 13.597H75.4508L75.4455 14.7667L75.4667 16.2864C75.4667 20.0859 76.9003 23.298 80.1285 23.298C83.0367 23.298 85.3226 22.2355 86.4734 19.2405H88.4448C87.2867 23.2584 83.9013 25.9779 79.8069 25.9779C74.2636 25.9779 69.371 20.7375 69.371 14.8635C69.371 8.9034 74.1067 3.69513 79.6007 3.69513ZM102.057 3.65666C106.022 3.65666 108.241 4.75259 109.82 6.3294L109.82 6.50524C109.82 6.52123 109.82 6.5382 109.82 6.5561V9.07026C109.82 9.10675 109.82 9.14301 109.82 9.179L109.82 10.6927H107.144V7.19786C104.982 6.22912 103.872 6.29655 102.871 6.31996L102.741 6.32268L102.676 6.32368C99.0444 6.37324 96.5589 8.38934 96.4135 14.2649C96.2865 19.3924 98.6533 23.2957 101.882 23.2957C104.789 23.2957 107.074 22.2361 108.225 19.2404H110.197C109.038 23.2588 105.653 25.9779 101.56 25.9779C96.0162 25.9779 91.1244 20.7374 91.1244 14.8635C91.1244 8.90336 95.7455 3.65666 102.057 3.65666ZM119.228 0V3.66137H123.926V6.34609H119.228V20.4997C119.173 23.7864 121.813 23.5464 123.336 22.9447L123.332 25.2007C123.332 25.2007 122.641 25.5042 122.127 25.6181C117.733 26.6061 113.963 25.7044 113.963 20.5836V6.34609H111.038V3.66137H113.963V1.84304L119.228 0ZM8.50095 0.00852964V10.6745H11.3042L17.1555 0.00852964H21.9187V2.6749H19.1009L14.9551 10.1716L23.6922 25.9618H17.4195L10.4614 13.5783H8.50095V25.9618H3.23615V2.6749H0V0.00852964H8.50095ZM60.2445 3.65763C64.6249 3.65763 66.9446 5.77026 66.9446 10.2846V25.9618H61.6618L61.6615 10.4113C61.6497 8.10784 61.2066 6.3253 58.7556 6.3253C55.2266 6.3253 53.307 9.66979 53.307 13.515V25.9618H48.0237V6.32811H44.3861V3.66108H53.307V7.17011C54.8245 5.02002 57.2199 3.65763 60.2445 3.65763ZM34.1932 6.34702C29.7267 6.34702 28.7971 10.5181 28.9452 15.1382C29.0923 19.7203 29.819 23.3196 34.275 23.3196C38.7333 23.3196 39.3517 19.4734 39.3517 14.8537C39.3517 10.2746 38.655 6.34702 34.1932 6.34702ZM137.726 13.6008C137.726 13.6008 129.482 13.9795 129.482 19.7393C129.482 22.4121 130.414 23.3011 132.197 23.3011C135.715 23.3011 137.725 20.399 137.725 14.6058L137.726 13.6008ZM79.2482 6.32998C76.4385 6.32998 75.4809 8.28218 75.4464 10.6928H83.0231C82.9066 8.20898 81.7936 6.32998 79.2482 6.32998Z" fill="#002855"/>
</svg>
